<svg xmlns="http://www.w3.org/2000/svg" viewBox="0 0 512 512" width="512" height="512">
  <defs>
    <linearGradient id="grad" x1="0%" y1="0%" x2="100%" y2="100%">
      <stop offset="0%" style="stop-color:#667eea"/>
      <stop offset="100%" style="stop-color:#764ba2"/>
    </linearGradient>
  </defs>
  <rect width="512" height="512" rx="80" fill="url(#grad)"/>
  <g transform="translate(80, 80)">
    <!-- Book -->
    <path d="M176 40 C112 40 48 64 48 88 L48 312 C48 336 112 360 176 360 C240 360 304 336 304 312 L304 88 C304 64 240 40 176 40 Z" fill="white" opacity="0.95"/>
    <!-- Center line -->
    <line x1="176" y1="64" x2="176" y2="336" stroke="url(#grad)" stroke-width="4" opacity="0.5"/>
    <!-- Left page lines -->
    <line x1="80" y1="128" x2="152" y2="128" stroke="#667eea" stroke-width="8" stroke-linecap="round" opacity="0.6"/>
    <line x1="80" y1="176" x2="144" y2="176" stroke="#667eea" stroke-width="8" stroke-linecap="round" opacity="0.6"/>
    <line x1="80" y1="224" x2="136" y2="224" stroke="#667eea" stroke-width="8" stroke-linecap="round" opacity="0.6"/>
    <line x1="80" y1="272" x2="128" y2="272" stroke="#667eea" stroke-width="8" stroke-linecap="round" opacity="0.6"/>
    <!-- Right page lines -->
    <line x1="200" y1="128" x2="272" y2="128" stroke="#764ba2" stroke-width="8" stroke-linecap="round" opacity="0.6"/>
    <line x1="200" y1="176" x2="264" y2="176" stroke="#764ba2" stroke-width="8" stroke-linecap="round" opacity="0.6"/>
    <line x1="200" y1="224" x2="256" y2="224" stroke="#764ba2" stroke-width="8" stroke-linecap="round" opacity="0.6"/>
    <line x1="200" y1="272" x2="248" y2="272" stroke="#764ba2" stroke-width="8" stroke-linecap="round" opacity="0.6"/>
    <!-- Bookmark -->
    <path d="M264 16 L264 112 L240 88 L216 112 L216 16 Z" fill="#f56565"/>
  </g>
</svg>
